<?xml version="1.0" encoding="utf-8"?>
<!-- Generator: Adobe Illustrator 26.4.1, SVG Export Plug-In . SVG Version: 6.00 Build 0)  -->
<svg version="1.1" id="icons" xmlns="http://www.w3.org/2000/svg" xmlns:xlink="http://www.w3.org/1999/xlink" x="0px" y="0px"
	 viewBox="0 0 500 500" style="enable-background:new 0 0 500 500;" xml:space="preserve">
<style type="text/css">
	.st0{fill:#FFFFFF;stroke:#231F20;stroke-width:6;stroke-linecap:round;stroke-linejoin:round;stroke-miterlimit:10;}
	.st1{fill:#231F20;}
	.st2{fill:#FFFFFF;stroke:#231F20;stroke-width:6;stroke-miterlimit:10;}
	.st3{fill:none;stroke:#231F20;stroke-width:6;stroke-miterlimit:10;}
	.st4{fill:#231F20;stroke:#231F20;stroke-width:6;stroke-miterlimit:10;}
	.st5{fill:none;stroke:#FFFFFF;stroke-width:6;stroke-miterlimit:10;}
	.st6{fill:#FFFFFF;}
	.st7{fill:#231F20;stroke:#231F20;stroke-width:6;stroke-linecap:round;stroke-linejoin:round;stroke-miterlimit:10;}
	.st8{fill:none;stroke:#231F20;stroke-width:6;stroke-linecap:round;stroke-linejoin:round;stroke-dasharray:10.0852,20.1704;}
	.st9{fill:none;stroke:#FFFFFF;stroke-width:6;stroke-linecap:round;stroke-linejoin:round;stroke-miterlimit:10;}
	.st10{fill:none;stroke:#231F20;stroke-width:6;stroke-linecap:round;stroke-linejoin:round;stroke-miterlimit:10;}
	
		.st11{fill:none;stroke:#231F20;stroke-width:6;stroke-linecap:round;stroke-linejoin:round;stroke-miterlimit:10;stroke-dasharray:10,20;}
</style>
<g>
	<g>
		<g>
			<path class="st2" d="M382.9,122.7L382.9,122.7H117.1h0c-44.7,0-81,36.3-81,81v154.9h162h265.8V203.7
				C463.9,158.9,427.6,122.7,382.9,122.7z"/>
			<path class="st4" d="M117.1,122.7L117.1,122.7c-44.7,0-81,36.3-81,81v154.9h162V203.7C198.1,158.9,161.8,122.7,117.1,122.7z"/>
		</g>
		<g>
			<rect x="237" y="358.6" class="st4" width="26.7" height="113.4"/>
			<rect x="263.7" y="358.6" class="st2" width="52.5" height="113.4"/>
		</g>
	</g>
	<g>
		<circle class="st2" cx="379.7" cy="120.3" r="84.5"/>
		<g>
			<ellipse class="st1" cx="400.8" cy="96.6" rx="13.5" ry="28.6"/>
			<ellipse class="st1" cx="358.6" cy="96.6" rx="13.5" ry="28.6"/>
		</g>
		<g>
			<path class="st3" d="M337.3,168.3c6.3-17.2,22.8-29.5,42.1-29.5c19.4,0,35.9,12.3,42.1,29.6"/>
			<line class="st3" x1="343.8" y1="171.4" x2="330.4" y2="167.4"/>
			<line class="st3" x1="415.7" y1="171.4" x2="429" y2="167.4"/>
		</g>
	</g>
</g>
</svg>
