<?xml version="1.0" encoding="utf-8"?>
<!-- Generator: Adobe Illustrator 26.4.1, SVG Export Plug-In . SVG Version: 6.00 Build 0)  -->
<svg version="1.1" id="icons" xmlns="http://www.w3.org/2000/svg" xmlns:xlink="http://www.w3.org/1999/xlink" x="0px" y="0px"
	 viewBox="0 0 500 500" style="enable-background:new 0 0 500 500;" xml:space="preserve">
<style type="text/css">
	.st0{fill:#FFFFFF;stroke:#231F20;stroke-width:6;stroke-linecap:round;stroke-linejoin:round;stroke-miterlimit:10;}
	.st1{fill:#231F20;}
	.st2{fill:#FFFFFF;stroke:#231F20;stroke-width:6;stroke-miterlimit:10;}
	.st3{fill:none;stroke:#231F20;stroke-width:6;stroke-miterlimit:10;}
	.st4{fill:#231F20;stroke:#231F20;stroke-width:6;stroke-miterlimit:10;}
	.st5{fill:none;stroke:#FFFFFF;stroke-width:6;stroke-miterlimit:10;}
	.st6{fill:#FFFFFF;}
	.st7{fill:#231F20;stroke:#231F20;stroke-width:6;stroke-linecap:round;stroke-linejoin:round;stroke-miterlimit:10;}
	.st8{fill:none;stroke:#231F20;stroke-width:6;stroke-linecap:round;stroke-linejoin:round;stroke-dasharray:10.0852,20.1704;}
	.st9{fill:none;stroke:#FFFFFF;stroke-width:6;stroke-linecap:round;stroke-linejoin:round;stroke-miterlimit:10;}
	.st10{fill:none;stroke:#231F20;stroke-width:6;stroke-linecap:round;stroke-linejoin:round;stroke-miterlimit:10;}
	
		.st11{fill:none;stroke:#231F20;stroke-width:6;stroke-linecap:round;stroke-linejoin:round;stroke-miterlimit:10;stroke-dasharray:10,20;}
</style>
<g>
	<rect x="28" y="28" class="st11" width="444" height="444"/>
	<path class="st0" d="M250,472L250,472c-122.6,0-222-99.4-222-222v0c0-122.6,99.4-222,222-222h0c122.6,0,222,99.4,222,222v0
		C472,372.6,372.6,472,250,472z"/>
	<g>
		<g>
			<g>
				<rect x="460.4" y="16.7" class="st0" width="22.6" height="22.6"/>
				<rect x="461" y="460.7" class="st0" width="22.6" height="22.6"/>
				<rect x="16.7" y="16.7" class="st0" width="22.6" height="22.6"/>
				<rect x="16.7" y="460.7" class="st0" width="22.6" height="22.6"/>
				
					<rect x="18.5" y="240.6" transform="matrix(-1.836970e-16 1 -1 -1.836970e-16 277.9845 222.0155)" class="st1" width="18.9" height="18.9"/>
				
					<rect x="462.3" y="240.6" transform="matrix(-1.836970e-16 1 -1 -1.836970e-16 721.7478 -221.7478)" class="st1" width="18.9" height="18.9"/>
				
					<rect x="240.4" y="18.7" transform="matrix(-1 -3.267951e-07 3.267951e-07 -1 499.7325 56.2368)" class="st1" width="18.9" height="18.9"/>
				
					<rect x="240.4" y="462.4" transform="matrix(-1 -3.267951e-07 3.267951e-07 -1 499.732 943.7633)" class="st1" width="18.9" height="18.9"/>
			</g>
		</g>
	</g>
</g>
</svg>
