<?xml version="1.0" encoding="utf-8"?>
<!-- Generator: Adobe Illustrator 26.4.1, SVG Export Plug-In . SVG Version: 6.00 Build 0)  -->
<svg version="1.1" id="icons" xmlns="http://www.w3.org/2000/svg" xmlns:xlink="http://www.w3.org/1999/xlink" x="0px" y="0px"
	 viewBox="0 0 500 500" style="enable-background:new 0 0 500 500;" xml:space="preserve">
<style type="text/css">
	.st0{fill:#FFFFFF;stroke:#231F20;stroke-width:6;stroke-linecap:round;stroke-linejoin:round;stroke-miterlimit:10;}
	.st1{fill:#231F20;}
	.st2{fill:#FFFFFF;stroke:#231F20;stroke-width:6;stroke-miterlimit:10;}
	.st3{fill:none;stroke:#231F20;stroke-width:6;stroke-miterlimit:10;}
	.st4{fill:#231F20;stroke:#231F20;stroke-width:6;stroke-miterlimit:10;}
	.st5{fill:none;stroke:#FFFFFF;stroke-width:6;stroke-miterlimit:10;}
	.st6{fill:#FFFFFF;}
	.st7{fill:#231F20;stroke:#231F20;stroke-width:6;stroke-linecap:round;stroke-linejoin:round;stroke-miterlimit:10;}
	.st8{fill:none;stroke:#231F20;stroke-width:6;stroke-linecap:round;stroke-linejoin:round;stroke-dasharray:10.0852,20.1704;}
	.st9{fill:none;stroke:#FFFFFF;stroke-width:6;stroke-linecap:round;stroke-linejoin:round;stroke-miterlimit:10;}
	.st10{fill:none;stroke:#231F20;stroke-width:6;stroke-linecap:round;stroke-linejoin:round;stroke-miterlimit:10;}
	
		.st11{fill:none;stroke:#231F20;stroke-width:6;stroke-linecap:round;stroke-linejoin:round;stroke-miterlimit:10;stroke-dasharray:10,20;}
</style>
<g>
	<circle class="st2" cx="250" cy="250" r="222"/>
	<line class="st3" x1="28" y1="250" x2="472" y2="250"/>
	<line class="st3" x1="250" y1="28" x2="250" y2="472"/>
	<path class="st3" d="M250,472c0,0,74-98.1,74-222S250,28,250,28"/>
	<path class="st3" d="M250,472c0,0,148-49.5,148-222S250,28,250,28"/>
	<path class="st3" d="M250,472c0,0-74-98.1-74-222s74-222,74-222"/>
	<path class="st3" d="M250,472c0,0-148-49.5-148-222S250,28,250,28"/>
	<path class="st3" d="M51.4,349.4c23.7-10.2,87.2-31.8,198.6-31.8c111.4,0,174.8,21.6,198.6,31.8"/>
	<path class="st3" d="M103.9,417.2c23.1-10.9,68.6-25.5,146.1-25.5c77,0,122.4,14.5,145.6,25.3"/>
	<path class="st3" d="M51.4,150.6c23.7,10.2,87.2,31.8,198.6,31.8c111.4,0,174.8-21.6,198.6-31.8"/>
	<path class="st3" d="M103.9,82.8c23.1,10.9,68.6,25.5,146.1,25.5c77,0,122.4-14.5,145.6-25.3"/>
</g>
</svg>
