<?xml version="1.0" encoding="utf-8"?>
<!-- Generator: Adobe Illustrator 26.4.1, SVG Export Plug-In . SVG Version: 6.00 Build 0)  -->
<svg version="1.1" id="icons" xmlns="http://www.w3.org/2000/svg" xmlns:xlink="http://www.w3.org/1999/xlink" x="0px" y="0px"
	 viewBox="0 0 500 500" style="enable-background:new 0 0 500 500;" xml:space="preserve">
<style type="text/css">
	.st0{fill:#FFFFFF;stroke:#231F20;stroke-width:6;stroke-linecap:round;stroke-linejoin:round;stroke-miterlimit:10;}
	.st1{fill:#231F20;}
	.st2{fill:#FFFFFF;stroke:#231F20;stroke-width:6;stroke-miterlimit:10;}
	.st3{fill:none;stroke:#231F20;stroke-width:6;stroke-miterlimit:10;}
	.st4{fill:#231F20;stroke:#231F20;stroke-width:6;stroke-miterlimit:10;}
	.st5{fill:none;stroke:#FFFFFF;stroke-width:6;stroke-miterlimit:10;}
	.st6{fill:#FFFFFF;}
	.st7{fill:#231F20;stroke:#231F20;stroke-width:6;stroke-linecap:round;stroke-linejoin:round;stroke-miterlimit:10;}
	.st8{fill:none;stroke:#231F20;stroke-width:6;stroke-linecap:round;stroke-linejoin:round;stroke-dasharray:10.0852,20.1704;}
	.st9{fill:none;stroke:#FFFFFF;stroke-width:6;stroke-linecap:round;stroke-linejoin:round;stroke-miterlimit:10;}
	.st10{fill:none;stroke:#231F20;stroke-width:6;stroke-linecap:round;stroke-linejoin:round;stroke-miterlimit:10;}
	
		.st11{fill:none;stroke:#231F20;stroke-width:6;stroke-linecap:round;stroke-linejoin:round;stroke-miterlimit:10;stroke-dasharray:10,20;}
</style>
<g>
	<g>
		<g>
			<path class="st2" d="M382.9,122.7L382.9,122.7H117.1h0c-44.7,0-81,36.3-81,81v154.9h162h265.8V203.7
				C463.9,158.9,427.6,122.7,382.9,122.7z"/>
			<path class="st4" d="M117.1,122.7L117.1,122.7c-44.7,0-81,36.3-81,81v154.9h162V203.7C198.1,158.9,161.8,122.7,117.1,122.7z"/>
		</g>
		<g>
			<rect x="237" y="358.6" class="st4" width="26.7" height="113.4"/>
			<rect x="263.7" y="358.6" class="st2" width="52.5" height="113.4"/>
		</g>
	</g>
	<g>
		<circle class="st0" cx="379.7" cy="120.3" r="84.8"/>
		<path class="st7" d="M464.5,123.5c0,0-50.6-43.2-84.7-3.3c-17.5-49.5,45.2-71.7,45.2-71.7l0,0c23.8,15,39.6,41.5,39.6,71.7
			C464.5,121.4,464.5,122.4,464.5,123.5"/>
		<path class="st7" d="M340.2,45.3c0,0-12.1,65.4,39.5,75C345.7,160.1,295,117,295,117l0,0c1.2-30.8,18.8-57.4,44.3-71.3"/>
		<path class="st7" d="M419.3,195.3c0,0,12.1-65.4-39.5-75c17.5,49.5-45.2,71.7-45.2,71.7l0,0c13.1,8.3,28.6,13,45.2,13
			c14.6,0,28.4-3.7,40.4-10.2"/>
	</g>
</g>
</svg>
