<?xml version="1.0" encoding="utf-8"?>
<!-- Generator: Adobe Illustrator 26.4.1, SVG Export Plug-In . SVG Version: 6.00 Build 0)  -->
<svg version="1.1" id="icons" xmlns="http://www.w3.org/2000/svg" xmlns:xlink="http://www.w3.org/1999/xlink" x="0px" y="0px"
	 viewBox="0 0 500 500" style="enable-background:new 0 0 500 500;" xml:space="preserve">
<style type="text/css">
	.st0{fill:#FFFFFF;stroke:#231F20;stroke-width:6;stroke-linecap:round;stroke-linejoin:round;stroke-miterlimit:10;}
	.st1{fill:#231F20;}
	.st2{fill:#FFFFFF;stroke:#231F20;stroke-width:6;stroke-miterlimit:10;}
	.st3{fill:none;stroke:#231F20;stroke-width:6;stroke-miterlimit:10;}
	.st4{fill:#231F20;stroke:#231F20;stroke-width:6;stroke-miterlimit:10;}
	.st5{fill:none;stroke:#FFFFFF;stroke-width:6;stroke-miterlimit:10;}
	.st6{fill:#FFFFFF;}
	.st7{fill:#231F20;stroke:#231F20;stroke-width:6;stroke-linecap:round;stroke-linejoin:round;stroke-miterlimit:10;}
	.st8{fill:none;stroke:#231F20;stroke-width:6;stroke-linecap:round;stroke-linejoin:round;stroke-dasharray:10.0852,20.1704;}
	.st9{fill:none;stroke:#FFFFFF;stroke-width:6;stroke-linecap:round;stroke-linejoin:round;stroke-miterlimit:10;}
	.st10{fill:none;stroke:#231F20;stroke-width:6;stroke-linecap:round;stroke-linejoin:round;stroke-miterlimit:10;}
	
		.st11{fill:none;stroke:#231F20;stroke-width:6;stroke-linecap:round;stroke-linejoin:round;stroke-miterlimit:10;stroke-dasharray:10,20;}
</style>
<g>
	<g>
		<path class="st6" d="M442,472H58c-16.6,0-30-13.4-30-30V58c0-16.6,13.4-30,30-30h384c16.6,0,30,13.4,30,30v384
			C472,458.6,458.6,472,442,472z"/>
		<path class="st8" d="M442,472H58c-16.6,0-30-13.4-30-30V58c0-16.6,13.4-30,30-30h384c16.6,0,30,13.4,30,30v384
			C472,458.6,458.6,472,442,472z"/>
	</g>
	<g>
		<path class="st7" d="M250,139.5L250,139.5c-61,0-110.5,49.5-110.5,110.5v0c0,61,49.5,110.5,110.5,110.5h0
			c61,0,110.5-49.5,110.5-110.5v0C360.5,189,311,139.5,250,139.5z"/>
		<g>
			<line class="st9" x1="250" y1="298.2" x2="250" y2="201.8"/>
			<line class="st9" x1="201.8" y1="250" x2="298.2" y2="250"/>
		</g>
	</g>
</g>
</svg>
